<svg xmlns="http://www.w3.org/2000/svg" width="1280" height="720" viewBox="0 0 1280 720">
<defs><linearGradient id="bg" x1="0" x2="1" y1="0" y2="1"><stop stop-color="#071018"/><stop offset="1" stop-color="#102735"/></linearGradient><linearGradient id="cyan" x1="0" x2="1"><stop stop-color="#30c7ef"/><stop offset="1" stop-color="#16a8c8"/></linearGradient></defs>
<rect width="1280" height="720" fill="url(#bg)"/><rect x="18" y="18" width="1244" height="64" rx="12" fill="#0d1b25" stroke="#214251"/>
<text x="42" y="45" fill="#55d6a1" font-family="Arial,sans-serif" font-size="13" font-weight="700" letter-spacing="3">CHUNITHM MOBILE</text><text x="42" y="68" fill="#f0f7fb" font-family="Arial,sans-serif" font-size="23" font-weight="700">Skin Studio</text>
<rect x="870" y="34" width="116" height="32" rx="7" fill="#132a35" stroke="#2c5969"/><text x="892" y="55" fill="#dcecf1" font-family="Arial,sans-serif" font-size="14">简体中文⌄</text>
<rect x="1000" y="34" width="98" height="32" rx="7" fill="#132a35" stroke="#2c5969"/><text x="1024" y="55" fill="#dcecf1" font-family="Arial,sans-serif" font-size="14">保存</text>
<rect x="1110" y="34" width="126" height="32" rx="7" fill="url(#cyan)"/><text x="1127" y="55" fill="#061017" font-family="Arial,sans-serif" font-size="14" font-weight="700">导出皮肤 ZIP</text>

<rect x="18" y="100" width="598" height="580" rx="12" fill="#0d1b25" stroke="#214251"/><text x="42" y="134" fill="#f0f7fb" font-family="Arial,sans-serif" font-size="18" font-weight="700">资源管理</text><rect x="42" y="158" width="550" height="54" rx="8" fill="#123342"/><text x="64" y="192" fill="#dcecf1" font-family="Arial,sans-serif" font-size="15">皮肤包资源　12 个文件</text><rect x="42" y="232" width="550" height="52" rx="8" fill="#163441"/><text x="64" y="265" fill="#55d6a1" font-family="Arial,sans-serif" font-size="15">导入皮肤 ZIP</text><g font-family="Arial,sans-serif" font-size="14"><rect x="42" y="306" width="550" height="44" rx="7" fill="#102530"/><text x="60" y="334" fill="#d8e8ef">ui/touch/tablet.png</text><text x="522" y="334" fill="#55d6a1">PNG</text><rect x="42" y="360" width="550" height="44" rx="7" fill="#102530"/><text x="60" y="388" fill="#d8e8ef">ui/judgement/critical.png</text><text x="522" y="388" fill="#55d6a1">PNG</text><rect x="42" y="414" width="550" height="44" rx="7" fill="#102530"/><text x="60" y="442" fill="#d8e8ef">ui/numbers/score/0.png</text><text x="522" y="442" fill="#55d6a1">PNG</text></g><text x="42" y="512" fill="#91afbb" font-family="Arial,sans-serif" font-size="14">缺少的元素会回退到游戏默认资源。</text><rect x="42" y="546" width="550" height="48" rx="8" fill="#132a35"/><text x="230" y="577" fill="#55d6a1" font-family="Arial,sans-serif" font-size="15">导出当前皮肤包</text>
<rect x="638" y="100" width="624" height="580" rx="12" fill="#0d1b25" stroke="#214251"/><text x="662" y="134" fill="#f0f7fb" font-family="Arial,sans-serif" font-size="18" font-weight="700">触控板与场景轨道</text><rect x="662" y="160" width="566" height="238" rx="8" fill="#08151e" stroke="#2c5969"/><path d="M720 350 L800 204 L1094 204 L1174 350" fill="#0b202d" stroke="#1e9fc0" stroke-width="3"/><path d="M752 350 L836 204 M1142 350 L1058 204" stroke="#1b78a0" stroke-width="2"/><rect x="846" y="252" width="194" height="84" rx="12" fill="#18445a" stroke="#55d6a1"/><text x="886" y="302" fill="#dff8ff" font-family="Arial,sans-serif" font-size="18">触控板皮肤</text><g fill="#102530" stroke="#2b5968"><rect x="662" y="430" width="272" height="48" rx="8"/><rect x="956" y="430" width="272" height="48" rx="8"/><rect x="662" y="496" width="566" height="48" rx="8"/></g><g fill="#91afbb" font-family="Arial,sans-serif" font-size="14"><text x="682" y="460">背景颜色　#071018</text><text x="976" y="460">轨道颜色　#1688A0</text><text x="682" y="526">判定线颜色　#FFAD0F</text></g><text x="662" y="592" fill="#55d6a1" font-family="Arial,sans-serif" font-size="14">支持自定义触控板、轨道与判定线颜色。</text></svg>