<svg xmlns="http://www.w3.org/2000/svg" width="1280" height="720" viewBox="0 0 1280 720">
<defs><linearGradient id="bg" x1="0" x2="1" y1="0" y2="1"><stop stop-color="#071018"/><stop offset="1" stop-color="#102735"/></linearGradient><linearGradient id="cyan" x1="0" x2="1"><stop stop-color="#30c7ef"/><stop offset="1" stop-color="#16a8c8"/></linearGradient></defs>
<rect width="1280" height="720" fill="url(#bg)"/><rect x="18" y="18" width="1244" height="64" rx="12" fill="#0d1b25" stroke="#214251"/>
<text x="42" y="45" fill="#55d6a1" font-family="Arial,sans-serif" font-size="13" font-weight="700" letter-spacing="3">CHUNITHM MOBILE</text><text x="42" y="68" fill="#f0f7fb" font-family="Arial,sans-serif" font-size="23" font-weight="700">Skin Studio</text>
<rect x="870" y="34" width="116" height="32" rx="7" fill="#132a35" stroke="#2c5969"/><text x="892" y="55" fill="#dcecf1" font-family="Arial,sans-serif" font-size="14">简体中文⌄</text>
<rect x="1000" y="34" width="98" height="32" rx="7" fill="#132a35" stroke="#2c5969"/><text x="1024" y="55" fill="#dcecf1" font-family="Arial,sans-serif" font-size="14">保存</text>
<rect x="1110" y="34" width="126" height="32" rx="7" fill="url(#cyan)"/><text x="1127" y="55" fill="#061017" font-family="Arial,sans-serif" font-size="14" font-weight="700">导出皮肤 ZIP</text>

<rect x="18" y="100" width="598" height="580" rx="12" fill="#0d1b25" stroke="#214251"/><text x="42" y="134" fill="#f0f7fb" font-family="Arial,sans-serif" font-size="18" font-weight="700">多语言界面</text><rect x="42" y="160" width="550" height="72" rx="8" fill="#123342"/><text x="68" y="190" fill="#91afbb" font-family="Arial,sans-serif" font-size="13">言語</text><text x="68" y="216" fill="#ffffff" font-family="Arial,sans-serif" font-size="19">日本語　⌄</text><rect x="42" y="256" width="550" height="50" rx="8" fill="#163441"/><text x="68" y="288" fill="#55d6a1" font-family="Arial,sans-serif" font-size="15">スキン ZIP をエクスポート</text><g fill="#102530" stroke="#2b5968"><rect x="42" y="332" width="260" height="64" rx="8"/><rect x="320" y="332" width="272" height="64" rx="8"/><rect x="42" y="416" width="260" height="64" rx="8"/><rect x="320" y="416" width="272" height="64" rx="8"/></g><g fill="#dcecf1" font-family="Arial,sans-serif" font-size="14"><text x="62" y="360">レイアウト</text><text x="62" y="382" fill="#91afbb">要素の位置とサイズ</text><text x="340" y="360">リソース</text><text x="340" y="382" fill="#91afbb">画像とスキンパック</text><text x="62" y="444">タッチパネル</text><text x="62" y="466" fill="#91afbb">タッチエフェクト</text><text x="340" y="444">Live2D</text><text x="340" y="466" fill="#91afbb">モデル設定</text></g><text x="42" y="548" fill="#91afbb" font-family="Arial,sans-serif" font-size="14">简体中文 · 繁體中文 · 日本語 · English</text><rect x="42" y="576" width="550" height="46" rx="8" fill="#132a35"/><text x="242" y="605" fill="#55d6a1" font-family="Arial,sans-serif" font-size="15">保存设置</text>
<rect x="638" y="100" width="624" height="580" rx="12" fill="#0d1b25" stroke="#214251"/><text x="662" y="134" fill="#f0f7fb" font-family="Arial,sans-serif" font-size="18" font-weight="700">Skin Studio</text><rect x="662" y="160" width="566" height="330" rx="8" fill="#08151e" stroke="#2c5969"/><text x="704" y="214" fill="#55d6a1" font-family="Arial,sans-serif" font-size="16">プレイ画面レイアウト</text><path d="M760 438 L838 244 L1040 244 L1118 438" fill="#0b202d" stroke="#1e9fc0" stroke-width="3"/><line x1="726" y1="420" x2="1152" y2="420" stroke="#ffb51b" stroke-width="5"/><text x="876" y="380" fill="#ffffff" font-family="Arial,sans-serif" font-size="20" font-weight="700">COMBO 100</text><rect x="662" y="522" width="566" height="48" rx="8" fill="#163441"/><text x="842" y="553" fill="#55d6a1" font-family="Arial,sans-serif" font-size="15">レイアウトを編集</text><text x="662" y="614" fill="#91afbb" font-family="Arial,sans-serif" font-size="14">ブラウザ版とデスクトップ版に対応</text></svg>